<svg width="150" height="52" viewBox="0 0 150 52" fill="none" xmlns="http://www.w3.org/2000/svg">
<rect width="150" height="52" fill="#EFEFEF"/>
<path d="M36.4216 33V18.4545H39.4969V30.4645H45.7327V33H36.4216ZM68.3694 25.7273C68.3694 27.3134 68.0687 28.6629 67.4674 29.7756C66.8708 30.8883 66.0564 31.7382 65.0242 32.3253C63.9967 32.9077 62.8414 33.1989 61.5583 33.1989C60.2657 33.1989 59.1056 32.9053 58.0782 32.3182C57.0507 31.7311 56.2387 30.8812 55.6421 29.7685C55.0455 28.6558 54.7472 27.3087 54.7472 25.7273C54.7472 24.1411 55.0455 22.7917 55.6421 21.679C56.2387 20.5663 57.0507 19.7187 58.0782 19.1364C59.1056 18.5492 60.2657 18.2557 61.5583 18.2557C62.8414 18.2557 63.9967 18.5492 65.0242 19.1364C66.0564 19.7187 66.8708 20.5663 67.4674 21.679C68.0687 22.7917 68.3694 24.1411 68.3694 25.7273ZM65.2515 25.7273C65.2515 24.6998 65.0976 23.8333 64.7898 23.1278C64.4868 22.4223 64.0583 21.8873 63.5043 21.5227C62.9503 21.1581 62.3016 20.9759 61.5583 20.9759C60.8149 20.9759 60.1662 21.1581 59.6123 21.5227C59.0583 21.8873 58.6274 22.4223 58.3196 23.1278C58.0166 23.8333 57.8651 24.6998 57.8651 25.7273C57.8651 26.7547 58.0166 27.6212 58.3196 28.3267C58.6274 29.0322 59.0583 29.5672 59.6123 29.9318C60.1662 30.2964 60.8149 30.4787 61.5583 30.4787C62.3016 30.4787 62.9503 30.2964 63.5043 29.9318C64.0583 29.5672 64.4868 29.0322 64.7898 28.3267C65.0976 27.6212 65.2515 26.7547 65.2515 25.7273ZM88.0923 23.1562C87.9929 22.8106 87.8532 22.5052 87.6733 22.2401C87.4933 21.9702 87.2732 21.7429 87.0127 21.5582C86.7571 21.3688 86.4635 21.2244 86.1321 21.125C85.8054 21.0256 85.4431 20.9759 85.0454 20.9759C84.302 20.9759 83.6486 21.1605 83.0852 21.5298C82.5265 21.8991 82.0909 22.4366 81.7784 23.142C81.4659 23.8428 81.3096 24.6998 81.3096 25.7131C81.3096 26.7263 81.4635 27.5881 81.7713 28.2983C82.079 29.0085 82.5146 29.5507 83.0781 29.9247C83.6415 30.294 84.3068 30.4787 85.0738 30.4787C85.7698 30.4787 86.3641 30.3556 86.8565 30.1094C87.3537 29.8584 87.7324 29.5057 87.9929 29.0511C88.258 28.5966 88.3906 28.0592 88.3906 27.4389L89.0156 27.5312H85.2656V25.2159H91.3522V27.0483C91.3522 28.3267 91.0823 29.4252 90.5426 30.3438C90.0028 31.2576 89.2594 31.9631 88.3125 32.4602C87.3655 32.9527 86.2812 33.1989 85.0596 33.1989C83.696 33.1989 82.4981 32.8982 81.4659 32.2969C80.4337 31.6908 79.6288 30.8314 79.0511 29.7188C78.4782 28.6013 78.1917 27.2756 78.1917 25.7415C78.1917 24.5625 78.3622 23.5114 78.7031 22.5881C79.0487 21.66 79.5317 20.8741 80.152 20.2301C80.7722 19.5862 81.4943 19.0961 82.3181 18.7599C83.142 18.4238 84.0345 18.2557 84.9957 18.2557C85.8196 18.2557 86.5866 18.3764 87.2968 18.6179C88.0071 18.8546 88.6368 19.1908 89.186 19.6264C89.74 20.062 90.1922 20.5805 90.5426 21.1818C90.893 21.7784 91.1179 22.4366 91.2173 23.1562H88.0923ZM114.829 25.7273C114.829 27.3134 114.528 28.6629 113.927 29.7756C113.33 30.8883 112.516 31.7382 111.484 32.3253C110.456 32.9077 109.301 33.1989 108.018 33.1989C106.725 33.1989 105.565 32.9053 104.538 32.3182C103.51 31.7311 102.698 30.8812 102.101 29.7685C101.505 28.6558 101.207 27.3087 101.207 25.7273C101.207 24.1411 101.505 22.7917 102.101 21.679C102.698 20.5663 103.51 19.7187 104.538 19.1364C105.565 18.5492 106.725 18.2557 108.018 18.2557C109.301 18.2557 110.456 18.5492 111.484 19.1364C112.516 19.7187 113.33 20.5663 113.927 21.679C114.528 22.7917 114.829 24.1411 114.829 25.7273ZM111.711 25.7273C111.711 24.6998 111.557 23.8333 111.249 23.1278C110.946 22.4223 110.518 21.8873 109.964 21.5227C109.41 21.1581 108.761 20.9759 108.018 20.9759C107.274 20.9759 106.626 21.1581 106.072 21.5227C105.518 21.8873 105.087 22.4223 104.779 23.1278C104.476 23.8333 104.324 24.6998 104.324 25.7273C104.324 26.7547 104.476 27.6212 104.779 28.3267C105.087 29.0322 105.518 29.5672 106.072 29.9318C106.626 30.2964 107.274 30.4787 108.018 30.4787C108.761 30.4787 109.41 30.2964 109.964 29.9318C110.518 29.5672 110.946 29.0322 111.249 28.3267C111.557 27.6212 111.711 26.7547 111.711 25.7273Z" fill="black"/>
</svg>
